<?xml version="1.0"?>
<svg xmlns="http://www.w3.org/2000/svg" viewBox="0 0 50 50">
    <path style="text-indent:0;text-align:start;line-height:normal;text-transform:none;block-progression:tb;-inkscape-font-specification:Bitstream Vera Sans" d="M 24.875 0 A 1.0001 1.0001 0 0 0 24.46875 0.15625 L 2.46875 14.15625 A 1.0001 1.0001 0 0 0 2 15.09375 L 4 34.875 A 1.0001 1.0001 0 0 0 4.40625 35.59375 L 24.40625 49.8125 A 1.0001 1.0001 0 0 0 25.59375 49.8125 L 45.59375 35.59375 A 1.0001 1.0001 0 0 0 46 34.875 L 48 15.09375 A 1.0001 1.0001 0 0 0 47.53125 14.15625 L 25.53125 0.15625 A 1.0001 1.0001 0 0 0 24.875 0 z M 25 2.1875 L 27.3125 3.65625 C 26.616134 3.8624789 25.83909 4 25 4 C 24.161497 4 23.384057 3.862495 22.6875 3.65625 L 25 2.1875 z M 20.59375 4.96875 C 21.838644 5.6121523 23.354749 6 25 6 C 26.646026 6 28.161623 5.6120912 29.40625 4.96875 L 41.0625 12.40625 C 40.410567 13.130949 40 14.017916 40 15 C 40 15.982084 40.410567 16.869051 41.0625 17.59375 L 29.375 25.03125 C 28.141569 24.380011 26.643199 24 25 24 C 23.356801 24 21.858431 24.380011 20.625 25.03125 L 8.90625 17.59375 C 9.5695478 16.872874 10 15.987454 10 15 C 10 14.012546 9.5695478 13.127126 8.90625 12.40625 L 20.59375 4.96875 z M 24.875 7.28125 A 1.0001 1.0001 0 0 0 24.46875 7.4375 L 13.90625 14.15625 A 1.0001 1.0001 0 0 0 13.90625 15.84375 L 24.46875 22.5625 A 1.0001 1.0001 0 0 0 25.53125 22.5625 L 36.09375 15.84375 A 1.0001 1.0001 0 0 0 36.09375 14.15625 L 25.53125 7.4375 A 1.0001 1.0001 0 0 0 24.875 7.28125 z M 25 9.46875 L 26.6875 10.5625 L 24.875 11.6875 L 23.1875 10.625 L 25 9.46875 z M 28.5625 11.71875 L 30.15625 12.71875 L 28.34375 13.875 L 26.75 12.875 L 28.5625 11.71875 z M 21.3125 11.8125 L 23 12.90625 L 21.4375 13.90625 L 19.71875 12.8125 L 21.3125 11.8125 z M 7.1875 13.5 C 7.7365893 13.974411 8 14.502827 8 15 C 8 15.497173 7.7365893 16.025589 7.1875 16.5 L 4.84375 15 L 7.1875 13.5 z M 42.8125 13.5 L 45.15625 15 L 42.8125 16.5 C 42.271184 16.021174 42 15.498724 42 15 C 42 14.501276 42.271184 13.978826 42.8125 13.5 z M 32.03125 13.90625 L 33.71875 15 L 31.90625 16.15625 L 30.1875 15.0625 L 32.03125 13.90625 z M 17.875 14 L 19.5625 15.09375 L 18 16.09375 L 16.28125 15 L 17.875 14 z M 24.875 14.0625 L 26.46875 15.0625 L 24.875 16.09375 L 23.28125 15.09375 L 24.875 14.0625 z M 21.4375 16.25 L 23 17.28125 L 21.4375 18.28125 L 19.84375 17.28125 L 21.4375 16.25 z M 28.3125 16.25 L 30.03125 17.34375 L 28.4375 18.34375 L 26.75 17.28125 L 28.3125 16.25 z M 4.21875 16.9375 L 12.03125 21.90625 L 12.90625 39.125 L 5.96875 34.1875 L 4.21875 16.9375 z M 45.78125 16.9375 L 44.03125 34.1875 L 37.09375 39.125 L 37.96875 21.90625 L 45.78125 16.9375 z M 24.875 18.46875 L 26.5625 19.53125 L 25 20.53125 L 23.3125 19.4375 L 24.875 18.46875 z M 14.125 23.25 L 24 29.53125 L 24 47.03125 L 14.96875 40.59375 L 14.125 23.25 z M 35.875 23.25 L 35.03125 40.59375 L 26 47.03125 L 26 29.53125 L 35.875 23.25 z M 25 26 C 25.834276 26 26.616311 26.138009 27.3125 26.34375 L 25 27.8125 L 22.6875 26.34375 C 23.383689 26.138009 24.165724 26 25 26 z"/>
</svg>
